<!--<svg id="visual" viewBox="0 0 900 600" width="1080" height="1920" xmlns="http://www.w3.org/2000/svg" xmlns:xlink="http://www.w3.org/1999/xlink" version="1.1"><rect x="0" y="0" width="900" height="600" fill="#000000"></rect><path d="M0 439L21.5 430.7C43 422.3 86 405.7 128.8 392.2C171.7 378.7 214.3 368.3 257.2 363.7C300 359 343 360 385.8 367.3C428.7 374.7 471.3 388.3 514.2 393.5C557 398.7 600 395.3 642.8 401C685.7 406.7 728.3 421.3 771.2 424C814 426.7 857 417.3 878.5 412.7L900 408L900 601L878.5 601C857 601 814 601 771.2 601C728.3 601 685.7 601 642.8 601C600 601 557 601 514.2 601C471.3 601 428.7 601 385.8 601C343 601 300 601 257.2 601C214.3 601 171.7 601 128.8 601C86 601 43 601 21.5 601L0 601Z" fill="#2d2d2d"></path><path d="M0 413L21.5 419.8C43 426.7 86 440.3 128.8 444.7C171.7 449 214.3 444 257.2 445.2C300 446.3 343 453.7 385.8 460C428.7 466.3 471.3 471.7 514.2 469.7C557 467.7 600 458.3 642.8 446.5C685.7 434.7 728.3 420.3 771.2 424.2C814 428 857 450 878.5 461L900 472L900 601L878.5 601C857 601 814 601 771.2 601C728.3 601 685.7 601 642.8 601C600 601 557 601 514.2 601C471.3 601 428.7 601 385.8 601C343 601 300 601 257.2 601C214.3 601 171.7 601 128.8 601C86 601 43 601 21.5 601L0 601Z" fill="#272727"></path><path d="M0 443L21.5 453C43 463 86 483 128.8 490.7C171.7 498.3 214.3 493.7 257.2 492.7C300 491.7 343 494.3 385.8 487.3C428.7 480.3 471.3 463.7 514.2 463.5C557 463.3 600 479.7 642.8 488.7C685.7 497.7 728.3 499.3 771.2 490C814 480.7 857 460.3 878.5 450.2L900 440L900 601L878.5 601C857 601 814 601 771.2 601C728.3 601 685.7 601 642.8 601C600 601 557 601 514.2 601C471.3 601 428.7 601 385.8 601C343 601 300 601 257.2 601C214.3 601 171.7 601 128.8 601C86 601 43 601 21.5 601L0 601Z" fill="#222222"></path><path d="M0 540L21.5 536.3C43 532.7 86 525.3 128.8 524.8C171.7 524.3 214.3 530.7 257.2 525.7C300 520.7 343 504.3 385.8 497.7C428.7 491 471.3 494 514.2 499C557 504 600 511 642.8 513.7C685.7 516.3 728.3 514.7 771.2 515.2C814 515.7 857 518.3 878.5 519.7L900 521L900 601L878.5 601C857 601 814 601 771.2 601C728.3 601 685.7 601 642.8 601C600 601 557 601 514.2 601C471.3 601 428.7 601 385.8 601C343 601 300 601 257.2 601C214.3 601 171.7 601 128.8 601C86 601 43 601 21.5 601L0 601Z" fill="#1c1c1c"></path><path d="M0 555L21.5 555.7C43 556.3 86 557.7 128.8 554.2C171.7 550.7 214.3 542.3 257.2 538.2C300 534 343 534 385.8 539.8C428.7 545.7 471.3 557.3 514.2 558.3C557 559.3 600 549.7 642.8 544.5C685.7 539.3 728.3 538.7 771.2 540.7C814 542.7 857 547.3 878.5 549.7L900 552L900 601L878.5 601C857 601 814 601 771.2 601C728.3 601 685.7 601 642.8 601C600 601 557 601 514.2 601C471.3 601 428.7 601 385.8 601C343 601 300 601 257.2 601C214.3 601 171.7 601 128.8 601C86 601 43 601 21.5 601L0 601Z" fill="#171717"></path></svg>-->




<svg id="visual" viewBox="00 110 900 600" width="1080" height="1920" xmlns="http://www.w3.org/2000/svg" xmlns:xlink="http://www.w3.org/1999/xlink" version="1.1">
    <rect x="0" y="0" width="900" height="600" fill="#000000"/>
    <path d="M0 439L21.5 430.7C43 422.3 86 405.7 128.8 392.2C171.7 378.7 214.3 368.3 257.2 363.7C300 359 343 360 385.8 367.3C428.7 374.7 471.3 388.3 514.2 393.5C557 398.7 600 395.3 642.8 401C685.7 406.7 728.3 421.3 771.2 424C814 426.7 857 417.3 878.5 412.7L900 408L900 601L878.5 601C857 601 814 601 771.2 601C728.3 601 685.7 601 642.8 601C600 601 557 601 514.2 601C471.3 601 428.7 601 385.8 601C343 601 300 601 257.2 601C214.3 601 171.7 601 128.8 601C86 601 43 601 21.5 601L0 601Z" fill="#2d2d2d" clip-path="url(#clipTopHalf)"/>
    <path d="M0 413L21.5 419.8C43 426.7 86 440.3 128.8 444.7C171.7 449 214.3 444 257.2 445.2C300 446.3 343 453.7 385.8 460C428.7 466.3 471.3 471.7 514.2 469.7C557 467.7 600 458.3 642.8 446.5C685.7 434.7 728.3 420.3 771.2 424.2C814 428 857 450 878.5 461L900 472L900 601L878.5 601C857 601 814 601 771.2 601C728.3 601 685.7 601 642.8 601C600 601 557 601 514.2 601C471.3 601 428.7 601 385.8 601C343 601 300 601 257.2 601C214.3 601 171.7 601 128.8 601C86 601 43 601 21.5 601L0 601Z" fill="#272727" clip-path="url(#clipTopHalf)"/>
    <path d="M0 443L21.5 453C43 463 86 483 128.8 490.7C171.7 498.3 214.3 493.7 257.2 492.7C300 491.7 343 494.3 385.8 487.3C428.7 480.3 471.3 463.7 514.2 463.5C557 463.3 600 479.7 642.8 488.7C685.7 497.7 728.3 499.3 771.2 490C814 480.7 857 460.3 878.5 450.2L900 440L900 601L878.5 601C857 601 814 601 771.2 601C728.3 601 685.7 601 642.8 601C600 601 557 601 514.2 601C471.3 601 428.7 601 385.8 601C343 601 300 601 257.2 601C214.3 601 171.7 601 128.8 601C86 601 43 601 21.5 601L0 601Z" fill="#222222" clip-path="url(#clipTopHalf)"/>
    <path d="M0 540L21.5 536.3C43 532.7 86 525.3 128.8 524.8C171.7 524.3 214.3 530.7 257.2 525.7C300 520.7 343 504.3 385.8 497.7C428.7 491 471.3 494 514.2 499C557 504 600 511 642.8 513.7C685.7 516.3 728.3 514.7 771.2 515.2C814 515.7 857 518.3 878.5 519.7L900 521L900 601L878.5 601C857 601 814 601 771.2 601C728.3 601 685.7 601 642.8 601C600 601 557 601 514.2 601C471.3 601 428.7 601 385.8 601C343 601 300 601 257.2 601C214.3 601 171.7 601 128.8 601C86 601 43 601 21.5 601L0 601Z" fill="#1c1c1c" clip-path="url(#clipTopHalf)"/>
    <path d="M0 555L21.5 555.7C43 556.3 86 557.7 128.8 554.2C171.7 550.7 214.3 542.3 257.2 538.2C300 534 343 534 385.8 539.8C428.7 545.7 471.3 557.3 514.2 558.3C557 559.3 600 549.7 642.8 544.5C685.7 539.3 728.3 538.7 771.2 540.7C814 542.7 857 547.3 878.5 549.7L900 552L900 601L878.5 601C857 601 814 601 771.2 601C728.3 601 685.7 601 642.8 601C600 601 557 601 514.2 601C471.3 601 428.7 601 385.8 601C343 601 300 601 257.2 601C214.3 601 171.7 601 128.8 601C86 601 43 601 21.5 601L0 601Z" fill="#171717" clip-path="url(#clipTopHalf)"/>
</svg>
